<?xml version="1.0" standalone="no"?>
<!DOCTYPE svg PUBLIC "-//W3C//DTD SVG 20010904//EN"
 "http://www.w3.org/TR/2001/REC-SVG-20010904/DTD/svg10.dtd">
<svg version="1.0" xmlns="http://www.w3.org/2000/svg"
 width="1128.000000pt" height="1128.000000pt" viewBox="0 0 1128.000000 1128.000000"
 preserveAspectRatio="xMidYMid meet">
<metadata>
Created by potrace 1.11, written by Peter Selinger 2001-2013
</metadata>
<g transform="translate(0.000000,1128.000000) scale(0.100000,-0.100000)"
fill="#000000" stroke="none">
<path d="M3607 9523 c-2 -1 -18 -5 -37 -8 -36 -6 -158 -43 -175 -54 -5 -3 -12
-6 -15 -7 -35 -7 -147 -65 -168 -87 -10 -11 -21 -52 -28 -105 -9 -72 -9 -94 3
-127 8 -22 16 -62 18 -90 17 -191 20 -201 88 -272 l50 -52 -1 -118 c0 -65 0
-126 -1 -135 -1 -15 -11 -18 -54 -18 -49 0 -56 -3 -100 -44 -76 -72 -108 -94
-249 -165 -165 -83 -257 -143 -325 -211 -83 -82 -113 -146 -118 -250 -3 -58
-13 -152 -19 -185 -3 -18 -10 -60 -22 -137 -2 -16 -6 -40 -9 -55 -2 -16 -7
-53 -10 -83 -3 -30 -8 -66 -10 -80 -3 -14 -7 -50 -10 -80 -3 -30 -8 -73 -11
-95 -12 -86 -14 -117 -18 -330 -7 -289 -13 -410 -30 -530 -4 -27 -17 -57 -32
-72 -33 -34 -58 -89 -58 -133 -1 -40 5 -53 40 -96 22 -27 54 -71 70 -99 30
-50 30 -51 32 -212 1 -90 0 -163 -3 -163 -10 0 -138 71 -164 91 -35 27 -161
151 -161 159 0 4 16 15 35 26 39 21 42 35 20 88 -8 20 -12 36 -9 36 4 0 2 6
-3 13 -9 10 -31 68 -39 102 -3 11 -90 247 -104 280 -4 11 -24 63 -45 115 -100
256 -134 311 -215 348 -43 19 -44 19 -144 26 -111 7 -160 24 -272 94 l-41 25
15 39 c8 21 19 38 24 38 4 0 8 7 8 15 0 8 17 47 38 87 35 68 82 124 149 174
24 19 28 29 29 78 1 56 -2 60 -38 57 -15 -2 -16 2 -8 23 5 14 7 26 4 26 -4 0
-2 6 4 13 7 8 10 46 8 92 -5 144 -65 213 -256 299 -150 67 -349 20 -428 -100
-50 -76 -64 -215 -32 -309 20 -59 13 -89 -15 -61 -25 25 -40 14 -38 -27 4 -58
42 -128 105 -189 32 -32 58 -63 59 -70 0 -7 2 -22 4 -33 2 -11 -3 -48 -12 -83
-16 -66 -23 -74 -128 -162 -27 -23 -59 -50 -71 -60 -53 -44 -172 -130 -180
-130 -5 0 -37 -29 -71 -65 -68 -72 -122 -173 -138 -257 -3 -13 -7 -34 -10 -48
-8 -41 -17 -140 -20 -215 -2 -38 -4 -70 -5 -70 -3 0 -13 -246 -14 -345 l-1
-105 42 -3 c35 -3 44 -7 47 -25 3 -12 12 -65 21 -117 18 -106 30 -142 58 -183
25 -37 26 -94 2 -292 -11 -85 -17 -144 -20 -185 -3 -25 -7 -67 -10 -95 -6 -61
-15 -156 -20 -210 -2 -22 -6 -65 -9 -95 -12 -113 -17 -156 -21 -205 -8 -79
-13 -125 -21 -205 -4 -41 -8 -92 -8 -112 -1 -21 -3 -38 -6 -38 -3 0 -5 -15 -5
-32 0 -18 -2 -53 -6 -78 -4 -25 -10 -81 -13 -125 -4 -44 -9 -93 -11 -110 -3
-16 -7 -57 -10 -90 -2 -33 -6 -78 -9 -100 -19 -164 -19 -175 6 -184 13 -5 27
-6 32 -3 12 7 76 9 76 2 0 -3 17 -4 37 -2 21 1 45 3 53 2 8 0 23 0 33 -1 11 0
17 -7 15 -17 -1 -9 1 -23 5 -29 5 -8 3 -13 -3 -13 -6 0 -9 -4 -6 -8 3 -5 7
-42 10 -83 3 -41 15 -112 27 -159 23 -92 28 -190 16 -285 -6 -49 -22 -142 -26
-152 -1 -2 -1 -9 -1 -17 0 -13 -19 -22 -65 -32 -11 -3 -23 -8 -28 -13 -11 -11
21 -44 62 -65 38 -20 162 -27 222 -14 l47 11 2 136 c2 193 9 400 14 441 3 33
9 74 22 160 3 19 7 49 9 65 11 76 20 92 53 96 14 2 30 5 37 9 3 1 10 3 17 4
13 1 15 26 20 198 2 60 5 108 8 108 3 0 5 35 6 78 2 128 11 292 17 298 3 4 6
-54 7 -127 2 -232 8 -424 14 -465 6 -41 51 -91 129 -142 29 -19 37 -32 38 -56
5 -117 8 -181 9 -181 1 0 3 -29 5 -65 2 -36 6 -108 10 -160 8 -104 9 -306 2
-358 -5 -37 -3 -40 49 -47 22 -3 49 -8 60 -10 12 -3 42 1 67 9 25 8 48 11 51
8 4 -3 6 -1 6 5 0 6 52 34 114 64 l115 53 -32 21 c-52 35 -91 46 -142 43 -58
-4 -55 -18 -56 212 -1 132 2 188 14 230 8 30 23 82 32 115 14 49 27 69 68 107
l50 47 4 138 c2 76 5 193 6 260 l3 122 59 55 c33 31 63 56 67 56 5 0 6 15 3
32 -4 30 -7 69 -21 223 -3 28 -7 68 -9 90 -2 22 -7 72 -10 110 -3 39 -8 88
-10 110 -3 22 -7 87 -10 145 -4 58 -8 116 -11 130 -3 14 -5 32 -5 40 1 8 1 31
0 50 -1 19 -1 76 0 125 2 190 2 223 -5 330 -10 142 -10 251 0 295 8 38 10 172
3 232 -5 38 14 78 36 78 7 0 45 -25 85 -55 120 -90 287 -203 318 -216 16 -6
82 -30 147 -53 65 -23 119 -46 119 -52 2 -9 13 -66 24 -114 8 -36 52 -79 88
-85 49 -8 90 -13 109 -14 15 -1 32 -26 36 -54 0 -4 8 -24 17 -45 13 -30 26
-126 24 -179 0 -7 0 -19 0 -25 -1 -7 1 -34 2 -61 2 -26 1 -47 -2 -47 -7 0 -3
-97 5 -109 3 -6 1 -11 -5 -11 -6 0 -8 -4 -5 -10 3 -5 8 -99 11 -207 2 -109 6
-223 9 -253 25 -294 24 -355 -9 -545 -11 -62 -16 -91 -20 -113 -8 -37 -28
-455 -25 -512 0 -14 1 -29 0 -35 -3 -77 -14 -515 -15 -590 -1 -110 12 -157 51
-191 26 -22 28 -34 24 -134 -5 -110 -10 -107 188 -109 l161 -1 6 24 c5 23 3
67 -12 191 -10 82 -9 87 25 124 29 32 102 143 137 210 l26 50 1 370 c1 204 6
371 10 371 5 0 5 5 1 11 -10 17 -11 51 -2 77 5 13 4 22 -3 22 -6 0 -7 5 -4 10
3 6 8 45 10 88 2 42 6 92 10 111 8 45 114 431 126 456 5 11 11 31 13 45 3 14
5 25 6 25 1 0 3 7 5 15 18 69 45 162 50 170 3 6 8 18 10 27 5 28 35 134 50
178 8 22 35 112 60 200 26 88 49 167 52 175 7 17 9 26 17 55 3 11 12 45 20 75
9 30 16 68 16 84 0 70 15 -4 35 -174 3 -25 7 -56 9 -70 2 -14 7 -50 11 -80 3
-30 8 -66 10 -80 8 -54 15 -108 20 -164 3 -33 7 -62 9 -65 3 -5 11 -63 21
-156 2 -16 6 -43 9 -60 5 -29 12 -96 22 -195 17 -190 24 -730 10 -875 -13
-140 -16 -934 -3 -942 5 -3 24 -8 41 -10 17 -2 40 -5 51 -7 11 -3 41 -8 67
-11 40 -6 47 -11 47 -29 -2 -55 14 -170 25 -181 23 -24 61 -38 108 -41 48 -2
72 11 185 106 7 5 15 10 18 10 3 0 13 7 23 15 74 65 178 136 235 159 43 18 67
34 68 45 0 9 2 25 5 36 2 11 6 41 8 67 4 44 2 48 -36 82 -41 37 -91 68 -118
72 -16 3 -110 -37 -110 -47 0 -4 -11 -14 -25 -23 l-24 -16 4 468 c3 257 7 530
10 607 3 77 8 196 10 265 9 236 19 324 45 385 24 58 39 106 45 146 4 24 9 47
11 51 3 4 7 22 8 40 2 18 7 58 10 88 15 123 22 338 30 858 l3 223 31 30 c26
25 50 85 45 109 -1 3 -3 19 -6 35 -2 17 -34 107 -70 200 -80 207 -97 256 -98
286 -1 24 6 178 16 379 3 58 8 150 10 205 3 55 8 147 11 205 3 58 6 122 7 143
2 45 11 46 49 6 34 -35 59 -89 65 -138 7 -61 267 -537 335 -615 10 -10 42 -68
72 -128 l54 -109 -89 -89 c-94 -94 -100 -109 -48 -130 39 -17 103 -14 186 6
37 9 93 17 123 18 49 2 58 -1 87 -28 18 -17 35 -43 38 -58 6 -28 -15 -151 -41
-241 -24 -84 3 -229 46 -240 10 -2 45 -3 79 -2 61 3 91 16 91 40 0 7 23 34 50
61 33 32 48 54 44 64 -13 31 -8 66 14 117 37 84 28 156 -29 219 -22 24 -31
148 -16 229 16 90 83 282 169 485 6 14 12 30 14 35 1 6 12 33 25 60 12 28 23
52 23 55 1 3 6 19 13 35 22 57 26 70 29 82 1 7 9 34 18 61 9 27 28 98 41 158
13 60 29 127 35 149 6 22 12 45 13 50 1 6 6 16 10 23 5 6 6 12 3 12 -3 0 0 17
8 38 8 20 17 50 20 65 10 41 22 26 40 -50 39 -161 44 -206 40 -343 -4 -122 -6
-154 -18 -252 -3 -27 -8 -68 -11 -93 -9 -81 -16 -139 -21 -180 -3 -22 -8 -53
-10 -70 -16 -118 -16 -118 20 -143 35 -24 35 -24 22 -65 -40 -130 -110 -334
-119 -344 -5 -7 -7 -13 -4 -13 5 0 -42 -130 -63 -175 -20 -44 -35 -116 -46
-230 -11 -123 -14 -156 -29 -390 -4 -61 -14 -227 -20 -355 -3 -52 -7 -106 -10
-120 -9 -52 -16 -80 -25 -105 -5 -14 -7 -25 -4 -25 2 0 0 -8 -5 -18 -7 -13 -2
-37 18 -87 30 -79 30 -105 -2 -105 -26 0 -97 46 -97 62 0 6 -3 8 -7 4 -4 -3
-8 -26 -9 -50 -1 -23 -10 -60 -19 -82 -21 -52 -128 -485 -128 -521 0 -7 -4
-13 -9 -13 -5 0 -7 -4 -4 -9 6 -8 -27 -140 -44 -176 -11 -26 -14 -34 -59 -195
-28 -100 -93 -368 -97 -400 -3 -28 -33 -171 -48 -230 -3 -13 -16 -104 -21
-145 -1 -5 3 -16 8 -22 5 -7 7 -13 3 -13 -3 0 8 -22 24 -49 l29 -49 -32 18
c-32 18 -71 21 -94 7 -23 -14 6 -91 55 -144 17 -17 28 -34 26 -36 -2 -2 65
-38 149 -81 188 -95 208 -107 251 -140 19 -14 39 -26 44 -26 12 0 52 -44 52
-57 0 -18 57 -36 109 -35 62 2 101 17 102 39 0 10 2 25 4 33 1 8 5 47 9 85 7
72 15 102 47 170 77 167 99 219 99 229 0 7 4 16 9 22 5 5 44 92 86 194 41 102
80 194 85 205 25 57 50 150 54 206 3 35 8 91 11 124 3 33 8 92 11 130 2 39 6
81 8 95 7 49 19 125 23 145 4 22 13 100 18 155 2 19 4 35 5 35 1 0 3 11 5 25
6 42 12 73 30 140 21 80 24 96 31 139 4 32 8 57 18 106 2 11 7 43 11 70 4 28
10 54 13 59 3 6 7 19 8 30 3 25 12 83 18 111 15 68 69 335 73 360 7 40 11 60
13 60 1 0 3 14 5 30 2 17 7 46 11 65 6 35 10 68 19 185 2 33 5 60 6 60 2 0 7
54 8 103 1 23 5 42 9 42 9 0 9 -26 13 -830 l3 -585 -32 -59 c-18 -32 -32 -66
-32 -76 0 -9 -3 -19 -6 -23 -3 -3 -7 -34 -9 -69 -4 -73 -14 -182 -20 -218 -2
-14 -6 -47 -10 -75 -3 -27 -7 -59 -9 -70 -28 -147 -28 -881 1 -928 2 -4 7 -19
9 -34 5 -28 22 -104 56 -258 11 -49 21 -112 22 -140 2 -27 4 -53 4 -57 3 -10
135 -38 180 -38 37 0 55 9 115 60 9 8 17 20 17 26 0 7 3 14 8 16 12 5 68 98
95 158 48 106 50 117 42 188 -5 37 -9 153 -11 259 l-2 192 55 148 c30 81 56
158 58 170 2 12 7 28 11 35 5 7 9 18 11 23 1 6 4 21 8 35 7 35 12 66 20 130 4
30 9 68 11 84 3 16 7 48 9 70 2 23 6 59 9 81 7 63 15 162 21 265 4 52 8 120
11 150 2 30 6 88 9 127 10 142 15 194 19 236 3 23 8 76 11 117 4 41 8 91 10
110 2 19 6 71 10 115 3 44 8 96 10 115 2 19 6 69 9 110 6 71 9 94 21 165 3 17
8 48 11 70 6 37 24 74 24 47 0 -14 39 -41 71 -48 75 -16 150 6 193 57 18 21
45 37 83 48 55 16 57 16 102 -7 l47 -23 150 52 c230 79 323 128 381 203 26 33
31 27 37 -49 3 -27 5 -50 6 -50 3 0 8 -33 14 -103 4 -40 9 -78 11 -85 18 -57
9 -171 -18 -204 -5 -7 -6 -13 -3 -13 4 0 1 -10 -5 -22 -28 -51 -34 -142 -34
-475 0 -189 -2 -343 -5 -343 -3 0 -5 -53 -6 -118 -1 -64 -3 -152 -5 -194 -2
-42 0 -80 4 -84 8 -8 10 -9 72 -19 93 -15 146 -25 165 -30 14 -4 16 -62 10
-247 -1 -7 1 -28 3 -45 2 -18 -2 -35 -7 -37 -6 -2 -5 -5 2 -5 7 -1 11 -5 8
-10 -17 -28 -26 -605 -14 -953 5 -151 2 -165 -32 -147 -9 4 -41 11 -72 14 -54
6 -58 5 -90 -27 -19 -18 -49 -56 -66 -85 l-31 -52 32 -25 c72 -55 127 -96 133
-96 2 0 26 -23 52 -52 81 -90 136 -140 167 -154 36 -15 138 -10 207 10 41 12
48 51 46 236 -3 146 1 216 17 309 2 14 6 44 10 66 6 43 30 174 39 215 3 14 8
34 10 45 2 11 9 40 16 65 19 67 20 87 24 315 2 116 6 220 10 232 4 12 8 30 10
40 2 10 16 54 30 98 28 89 42 146 51 220 9 61 15 70 54 73 24 2 31 -2 32 -15
1 -10 2 -36 4 -59 1 -22 6 -54 10 -70 5 -16 10 -35 12 -42 1 -6 4 -18 6 -25 1
-7 18 -39 37 -72 19 -33 37 -64 39 -70 2 -5 7 -12 10 -15 3 -3 25 -43 48 -90
41 -83 42 -88 40 -175 -4 -141 8 -198 61 -305 26 -52 58 -113 72 -135 14 -22
31 -49 38 -60 6 -11 18 -31 24 -45 7 -14 19 -31 26 -39 11 -11 12 -29 7 -75
-10 -74 -10 -267 0 -319 9 -50 26 -88 78 -172 l44 -70 136 -3 137 -3 19 31
c15 26 18 48 16 123 -3 115 -17 166 -63 236 l-37 56 -2 135 c-6 293 -12 467
-18 515 -5 43 -16 120 -20 135 -1 3 -5 21 -9 40 -17 80 -70 240 -106 320 -37
80 -50 141 -54 235 l-1 40 50 -3 50 -3 -3 214 -3 214 31 27 c17 14 34 36 38
48 6 23 6 404 -1 553 -4 84 -2 91 46 195 27 58 30 75 30 160 -1 121 -11 333
-28 555 -4 44 -8 100 -10 125 -1 25 -5 81 -9 125 -14 186 -17 225 -21 320 -5
123 -8 137 -39 188 -50 85 -123 149 -251 217 -65 35 -205 125 -250 162 -49 40
-142 111 -154 117 -12 7 -11 13 4 42 49 93 59 119 81 208 14 52 22 101 20 108
-3 7 -2 13 2 13 5 0 9 37 10 83 2 96 -26 222 -66 300 -51 99 -191 215 -283
232 -11 2 -24 7 -29 10 -20 13 -126 6 -164 -10 -66 -28 -137 -79 -218 -156
-71 -68 -78 -79 -91 -134 -14 -64 -15 -150 -2 -280 4 -44 9 -98 11 -120 7 -74
12 -85 73 -155 33 -37 33 -46 11 -120 -20 -63 -37 -94 -45 -81 -10 17 -20 13
-74 -29 -28 -22 -53 -40 -55 -40 -3 0 -17 -11 -32 -25 -27 -25 -60 -42 -278
-144 -102 -48 -134 -73 -145 -111 -2 -8 -5 -69 -6 -135 -1 -68 -8 -139 -15
-165 -8 -26 -15 -97 -16 -165 -2 -134 -7 -180 -23 -243 -7 -24 -13 -62 -15
-85 l-3 -42 -99 -40 c-55 -23 -117 -51 -137 -64 -21 -13 -40 -21 -43 -18 -2 2
-7 42 -9 88 -15 275 -25 499 -30 654 -2 55 -4 100 -5 100 -2 0 -6 117 -10 247
-1 45 -9 89 -17 105 -77 144 -72 117 -89 441 -6 125 -9 165 -19 290 l-7 92 28
1 c16 0 38 3 49 5 11 3 26 6 34 6 13 1 12 31 -4 93 -4 17 -38 152 -49 195 -9
33 -49 147 -62 175 -37 82 -51 92 -239 188 -55 27 -129 69 -165 92 -69 45
-160 131 -160 152 0 7 -4 13 -8 13 -5 0 -14 11 -20 25 -9 20 -19 25 -48 25
l-37 0 7 76 c4 42 12 86 18 98 6 11 41 51 79 89 l69 67 -4 128 c-4 137 -4 140
-26 192 -34 86 -163 239 -248 295 -52 34 -82 28 -197 -39 -172 -101 -249 -173
-305 -281 -56 -107 -79 -144 -112 -180 -36 -39 -111 -145 -103 -145 25 0 142
110 174 163 29 47 37 43 15 -9 -62 -148 -91 -192 -174 -257 l-35 -27 35 18
c19 9 37 19 40 22 3 3 25 19 50 35 25 16 48 34 52 40 3 5 16 21 28 35 12 14
27 37 32 53 6 15 14 27 18 27 5 0 5 -12 1 -27 -15 -51 -79 -227 -97 -268 -10
-22 -18 -42 -19 -45 -14 -46 -98 -183 -132 -212 -13 -12 -42 -19 -85 -22 -82
-5 -104 -20 -153 -104 -35 -59 -138 -264 -200 -395 -26 -56 -26 -59 -9 -72 11
-8 23 -15 27 -15 5 0 30 -10 57 -21 41 -17 49 -25 46 -43 -3 -11 -5 -21 -6
-21 -1 0 -3 -18 -5 -40 -7 -93 -49 -317 -71 -382 -7 -23 -15 -52 -18 -65 -2
-13 -20 -53 -39 -90 -29 -55 -54 -114 -62 -148 -1 -3 -4 -12 -8 -20 -22 -57
-95 -317 -103 -369 -2 -14 -6 -35 -9 -46 -5 -24 -17 -112 -19 -138 0 -9 -4
-17 -8 -17 -5 0 -12 0 -17 0 -5 0 -11 8 -14 18 -14 47 -99 289 -106 302 -4 8
-14 39 -21 68 -8 28 -17 52 -22 52 -4 0 -7 3 -6 8 2 9 -22 93 -30 107 -4 6 -7
15 -8 20 -2 8 -130 380 -149 433 -2 7 -4 13 -4 15 0 1 -5 16 -11 32 -7 17 -32
89 -56 160 -44 126 -57 161 -75 197 -5 10 -9 22 -9 28 0 14 -115 260 -135 288
-28 40 -87 92 -136 119 -51 29 -229 97 -229 88 0 -2 -11 0 -25 5 -14 5 -36 12
-48 14 -51 10 -137 49 -162 74 -15 14 -52 65 -83 112 -30 47 -57 87 -59 89 -2
3 -18 6 -36 7 -17 1 -35 2 -38 3 -4 0 -7 20 -8 44 -8 201 -7 207 9 212 25 8
58 47 63 75 7 37 18 60 28 60 8 0 20 49 24 95 1 11 -5 31 -14 44 -29 45 -37
141 -15 184 8 15 17 49 20 75 l5 47 -92 60 c-50 33 -101 68 -113 78 -31 28
-66 44 -111 52 -39 7 -144 13 -148 8z m5586 -1873 c107 -40 187 -137 221 -269
14 -53 15 -185 2 -246 -21 -97 -40 -155 -71 -212 -21 -39 -37 -84 -40 -116 -5
-48 -3 -55 22 -82 15 -17 59 -53 96 -80 38 -28 74 -55 80 -60 7 -6 37 -28 67
-50 30 -22 57 -42 60 -45 7 -8 94 -58 156 -90 95 -49 168 -112 199 -171 8 -15
17 -73 20 -130 3 -57 8 -133 10 -169 3 -36 7 -101 10 -145 3 -44 8 -105 10
-137 3 -31 7 -87 10 -125 3 -37 7 -90 10 -118 7 -76 17 -320 18 -411 0 -65 -4
-92 -23 -130 -53 -114 -57 -126 -54 -214 1 -47 6 -180 9 -297 7 -230 5 -240
-46 -270 l-30 -18 3 -178 c2 -113 -1 -177 -7 -178 -5 -1 -31 -1 -58 1 -36 1
-46 -1 -42 -12 2 -7 7 -62 9 -123 9 -177 16 -213 59 -305 59 -126 121 -349
133 -475 7 -77 14 -301 15 -492 l1 -171 42 -69 c52 -83 56 -94 60 -172 l4 -61
-62 0 -61 1 -28 46 c-42 69 -53 127 -50 255 4 132 4 138 12 138 11 0 3 75 -12
111 -8 20 -31 59 -51 87 -20 29 -33 52 -30 52 4 0 0 8 -9 18 -8 9 -41 68 -73
130 l-57 114 0 141 0 141 -52 101 c-29 56 -68 126 -87 156 -54 87 -66 141 -72
339 -1 50 4 48 -96 35 -36 -5 -76 -10 -90 -11 -14 -1 -25 -3 -25 -4 0 -1 -18
-3 -39 -6 -22 -2 -41 -5 -43 -7 -2 -3 -6 -22 -8 -43 -16 -120 -44 -256 -71
-334 -9 -25 -18 -53 -20 -62 -4 -17 -7 -30 -20 -80 -3 -13 -7 -113 -8 -223 -2
-110 -7 -222 -12 -250 -9 -59 -8 -50 -22 -100 -6 -22 -13 -51 -16 -65 -3 -14
-7 -34 -9 -45 -3 -11 -8 -42 -11 -70 -4 -27 -9 -57 -11 -65 -6 -20 -13 -64
-20 -125 -3 -27 -8 -61 -10 -75 -6 -32 -18 -162 -17 -175 10 -140 11 -195 5
-196 -4 0 -25 -2 -45 -5 -41 -4 -45 0 -164 127 -28 30 -72 69 -99 87 -52 36
-48 57 6 42 16 -5 29 -6 29 -4 0 3 6 2 13 -3 6 -4 21 -8 32 -9 11 0 29 -4 40
-7 16 -5 27 4 55 43 19 27 39 50 43 50 5 0 5 5 2 11 -22 34 -25 1079 -4 1079
7 0 2 57 -6 71 -4 5 -3 9 2 9 7 0 9 64 3 80 -2 3 -1 10 0 15 6 29 4 308 -2
318 -4 7 -8 8 -8 4 0 -5 -6 -5 -12 -1 -7 5 -19 9 -28 10 -32 4 -86 12 -120 19
-19 3 -44 7 -55 9 -19 3 -20 11 -20 149 0 81 2 147 5 147 3 0 5 152 5 338 0
317 6 423 25 447 4 6 17 42 28 81 18 65 21 134 9 204 -5 26 -13 87 -23 168
-12 104 -15 119 -29 167 -18 60 -22 65 -103 134 -37 33 -66 51 -71 45 -5 -5
-16 -38 -25 -74 -9 -36 -21 -66 -26 -68 -6 -2 -10 -8 -10 -14 0 -26 -68 -66
-201 -119 -57 -23 -108 -42 -114 -43 -5 -1 -34 -10 -63 -20 -51 -17 -53 -17
-88 3 -40 24 -55 25 -106 7 -33 -12 -37 -11 -41 5 -4 14 8 26 51 50 74 41 133
71 146 73 6 2 27 9 47 18 20 9 47 19 60 23 37 11 88 53 88 73 -1 35 9 108 19
147 23 87 33 185 18 185 -5 0 -4 5 1 13 5 6 8 44 7 82 -2 41 4 95 14 130 10
38 16 101 16 173 l1 114 40 22 c22 12 76 37 120 56 44 18 103 46 131 61 49 26
217 150 229 168 2 5 -5 21 -17 37 -21 26 -21 27 -3 22 11 -3 36 -13 56 -22
l37 -15 27 76 c51 144 46 189 -32 271 -18 19 -34 42 -34 51 -1 9 -3 25 -4 36
-17 117 -24 298 -14 345 9 39 116 146 181 180 20 11 39 23 42 28 11 17 103 13
159 -8z m-1925 -182 c6 -24 17 -69 26 -100 52 -187 95 -352 101 -383 2 -16 7
-39 9 -51 2 -11 7 -68 11 -125 14 -231 22 -344 25 -344 1 0 3 -7 5 -15 1 -8
20 -69 40 -135 20 -66 43 -145 51 -175 31 -114 54 -206 59 -235 8 -47 12 -66
29 -130 16 -64 16 -195 -1 -217 -9 -12 -48 -130 -45 -135 1 -2 -5 -17 -12 -35
-8 -18 -12 -41 -10 -52 1 -10 -8 -29 -20 -43 l-22 -24 -1 258 c0 252 -1 260
-27 343 -15 47 -29 91 -31 98 -3 7 -5 14 -5 17 0 3 -7 22 -14 43 -12 33 -18
67 -31 167 -2 17 -10 62 -19 100 -8 39 -18 88 -21 110 -14 102 -31 157 -91
282 l-64 134 5 112 c3 62 7 141 10 177 2 36 7 112 11 170 15 256 13 230 18
230 2 0 9 -19 14 -42z m-563 -2187 c3 -5 2 -12 -3 -15 -5 -3 -9 1 -9 9 0 17 3
19 12 6z m919 -143 c-8 -13 -35 4 -30 19 3 8 6 20 6 26 1 7 7 1 14 -13 8 -14
12 -28 10 -32z"/>
<path d="M10865 3318 c-103 -14 -156 -41 -222 -111 -66 -70 -87 -126 -88 -232
0 -77 4 -98 26 -145 76 -160 238 -231 424 -186 60 14 155 92 193 158 62 108
57 265 -11 363 -73 104 -209 169 -322 153z m125 -60 c164 -52 251 -250 178
-406 -12 -26 -28 -53 -35 -60 -7 -7 -18 -21 -25 -31 -18 -24 -95 -67 -138 -77
-48 -10 -130 -12 -136 -2 -3 4 -15 8 -26 8 -34 0 -148 81 -148 105 0 4 -6 13
-14 19 -26 19 -54 123 -49 179 10 130 124 259 243 274 19 3 36 6 38 8 5 5 78
-6 112 -17z"/>
<path d="M10759 3176 c-7 -5 -3 -386 3 -387 4 -1 20 -2 36 -3 l27 -1 0 80 0
80 31 3 c38 4 49 -7 108 -97 40 -62 46 -67 77 -66 23 0 33 5 31 14 -4 18 -70
121 -95 149 -20 21 -20 22 -1 22 10 1 30 10 44 21 21 18 25 30 25 73 0 84 -41
108 -187 111 -54 1 -99 2 -99 1z m191 -66 c51 -39 21 -109 -48 -111 -48 -2
-66 1 -72 11 -5 8 -5 66 -1 106 2 19 95 14 121 -6z"/>
</g>
</svg>
