<svg version="1" xmlns="http://www.w3.org/2000/svg" width="1365.333" height="1365.333" viewBox="0 0 1024.000000 1024.000000"><path d="M482.6 1C371.4 8 268.8 48.7 182.9 120c-15.8 13.2-49.4 46.8-62.8 63-27.6 33-47.8 64.2-67.1 103.5C24.2 344.9 8.1 402.7 1.9 470c-1.6 17.4-1.6 66.6 0 84C9 631 30.3 699.4 67.6 765.9c49 87 127.3 160.8 217.9 205.1 91.2 44.6 189.1 61.2 289.1 49 147.6-18.1 281-100.2 362.8-223.5 43.1-64.9 71-138.4 81.5-214.5 3.5-25.6 4.5-40.9 4.5-70 0-15.7-.6-34.6-1.3-42-6.2-67.3-22.3-125.1-51.1-183.5-19.3-39.3-39.5-70.5-67.1-103.5-13.4-16.2-47-49.8-62.8-63C759.9 52.7 663.8 12.5 559.5 2.5 539.6.6 501.1-.1 482.6 1zm-93.1 180.6c12.3 8 13.2 9.7 10.1 17.5-1.8 4.4-.9 11 2 15.3 1.1 1.9 1.3 3.3.5 6.6-.5 2.3-1.4 4.7-2 5.3-.6.6-1.1 2.2-1.1 3.5 0 1.4-1.3 3.6-3.1 5.3l-3.2 3 .9 9.2.9 9.2 3.1.3c2.1.2 3.5 1.2 4.7 3.2 3.3 5.5 9.8 13.1 12.9 15 1.7 1 8.3 3.1 14.5 4.5 13.4 3.1 24 8.1 28.4 13.3 1.7 2 5.9 9.5 9.5 16.7 5.1 10.4 10 24.2 25 69.5 16.2 48.9 21.5 63.2 22.9 61.8.2-.2.9-5.3 1.5-11.3 1.9-19 7.5-42.9 13-55.5 1.6-3.6 3.5-9.2 4.4-12.5 1.7-7 4.5-25.6 4.8-33.3l.3-5.4-5-2c-2.7-1.1-5.3-2.3-5.8-2.7-.8-.8 4.5-14.1 12.6-31.3 6.1-12.9 8.8-15.8 14.9-15.8 5.6 0 7.2-1.2 11.7-8.8 4-6.7 12.6-30.4 11.8-32.6-.3-.6-1 .1-1.7 1.6s-3.9 4.6-7.1 6.8c-6.1 4.3-7.9 4.2-3.3-.1 2.7-2.5 6.6-9.5 7.8-13.9.6-2.1.5-2.2-.4-.7-1.4 2.2-11.1 9.9-11.7 9.3-.7-.7 2.4-6 6.3-10.7 2-2.4 5.7-8.6 8-13.7 3.2-6.8 5.8-10.6 9.6-14.4 7.2-6.9 22.3-16.8 25.8-16.8s9 4 16.3 11.9c7.8 8.5 10.6 14.3 11.8 24.7 1.3 11.4.2 15.5-5.5 21.3-4.8 4.9-6.6 9-6.6 15.3 0 3.3.3 3.8 2.3 3.8 1.7 0 3.7 1.7 7 5.9 5.6 7.3 10.7 10.8 25.6 17.8 6.4 3.1 13 6.6 14.7 7.9 4 2.9 8.2 12.7 12.9 30.1 3.3 11.9 3.4 12.9 1.8 14-.9.7-2.7 1.3-3.9 1.3-2 0-4.9 2.2-4 3.1.2.2 1.1 8.5 2.1 18.4 3.1 34 3.2 34.5 6.6 40 3 4.6 3.3 6.2 5 22 3.3 30.8 5.9 59.8 5.9 66.6 0 3.6.3 8 .6 9.6l.6 2.9 9.6-4.8c5.4-2.6 10.1-4.9 10.6-5.1 1.2-.4 3.5-16.9 3.6-25.3 0-12.1 6.6-28.8 16.5-42.3 2.3-3.1 5.7-8.1 7.7-11.1 1.9-3 4.6-6.5 5.9-7.7 4.7-4.2 19.2-13.3 21.3-13.3 5.4-.1 5.2-1.6-1.1-9.7-3.3-4.3-7-9.6-8.1-11.9-3-5.9-5.6-20.6-4.8-27.8 1.3-12.2 8.9-23.1 19.4-27.9 7.3-3.2 20-3.5 27.7-.6 8 3 15.2 10.3 18.4 18.4 4.8 12.4 3.6 31.7-2.8 46.2-1.6 3.7-2.8 7-2.6 7.3.2.3 6.9 3 15 6 16.4 6.1 20.2 8.8 26.6 18.2 6.1 8.9 9 16.1 10.1 24.6.5 4.2 3.3 20.5 6.3 36.2 5.1 27.1 7.5 46.2 7.5 60.5 0 4.7-.7 8.2-2.7 13l-2.6 6.5 1.2 21.2c.9 13.8 1.2 32.6.8 53.3l-.5 32-4.6-.2c-4.2-.3-4.6-.1-4.6 2 0 3.9 2.6 12 6.4 20.2 8 17 8.8 20.5 11.6 54l2 24 4.7 10.4c5.4 12.2 6.4 18 3.7 20.7-1.8 1.8-3.3 1.9-22.4 1.3-13.2-.3-21.3-1-22.7-1.7-3-1.6-3.9-5.6-2-8.5 2.1-3.1 8.7-9.8 12-12.2l2.8-2-1.5-8.7c-1-5.5-2.8-11.3-5-15.5-4.5-8.9-10-27-12.6-41.1-1.1-6.2-3-13.3-4-15.8-1.1-2.5-2.5-7.8-3.2-11.7-.6-4-1.7-8.4-2.5-10-1.3-2.7-1.4-2.7-11.3-2.7-9.7 0-10 .1-10 2.3 0 1.2-.9 5.4-2.1 9.2-1.8 6.2-2.1 9.4-1.9 26.6.1 17.2-.2 21.2-2.5 33.5-1.7 8.6-2.9 19-3.2 27.4-.4 11.9-.2 14.2 1.6 19.4 2.4 6.6 2.7 11.6.9 13.4-2.1 2.1-31.1.9-44.8-1.9-17.7-3.6-15.2-12.4 5.3-18.4 3.2-.9 7-2.7 8.4-3.9l2.6-2.3-1.6-25.4c-1.1-15.7-1.6-35.2-1.5-51.1.2-14.1 0-25.9-.3-26.2-.3-.3-4.1-.1-8.5.4-4.8.5-8.3.5-8.8-.1-.6-.5-1.3-12-1.7-25.6-.4-13.7-1.3-37.4-2-52.9l-1.2-28.1 2.7-10.4 2.7-10.4-3-16.9c-1.6-9.2-3.2-17-3.5-17.3-.3-.3-2.6 1.8-5.2 4.6-5 5.6-15.1 11-30.7 16.6-7.6 2.7-7.8 2.8-11.6 1.1-3.4-1.6-4.1-1.6-7.2-.3-1.9.8-4.5 2.7-5.9 4.2-5.1 5.5-14.5 7.2-19.3 3.5l-2.6-2.1-.5 2.3c-.3 1.3-.7 3.6-1 5.3-.9 5.1-5.6 93.3-5.6 106 0 6.6-.9 20.8-2 31.5-1.7 18-2.2 20.6-6.6 34l-4.8 14.5.1 13.5c.1 7.5.7 17.3 1.3 21.9 1.7 12.3.1 20.6-5.1 26.8-5.5 6.7-6.9 7.2-18.6 7.3H628l-3.1-6.2c-2.3-4.5-3.5-9-4.5-15.8-.7-5.2-2-12.9-2.9-17-2.6-12.5-3.7-51.3-2-71 .8-9.1 1.7-20.6 2-25.5.4-5 1.7-16.7 3-26 3-21.8 3.7-34.4 2.5-42.5-.6-3.6-1.7-17.5-2.5-31s-1.5-25.6-1.6-27c-.1-1.4-.7 3.8-1.4 11.5-1.1 13-8.4 62.6-14 95-2.4 13.9-5.6 42.7-5.5 49.6 0 4-1.5 10.3-12 48.4-9.5 34.9-10.6 38.1-14.1 43.4-1.6 2.5-3.2 5.7-3.5 7.1-.3 1.4-.8 3.1-1 3.9-.4 1.1-4.4 1.3-22.7.9-19.8-.4-22.9-.7-29-2.8-6.4-2.2-12.7-6.5-12.7-8.8 0-.6 2.6-2.5 5.8-4.3 13.2-7.5 13.6-7.9 16.4-17.6 1.5-4.8 2.9-12.2 3.2-16.4.6-8.7 7.4-49.6 11-66.3 3-13.6 4.2-25.1 5.7-51.1.5-11 1.5-24.5 2-30s1.4-24.7 1.9-42.6c1.1-38.2 2.2-51.5 4.9-58.5 2.5-6.4 13.1-42.6 13.1-44.6 0-.8-1.2-2-2.6-2.7-2.5-1.1-2.6-1.5-2.1-6.4 2-17.4 3.8-47.8 3.5-57.2-.5-11.2-4.2-28.5-5.9-26.8-1 1-5.5 19.2-6.4 25.8-1.1 8.6-5.3 23.2-11.9 41.5-11.7 32.2-12.9 37.8-11.4 52.7.9 8.6.8 11.8-.7 20-2.2 12.2-8.1 24.7-12.1 25.7-5.2 1.3-9.4-4.4-9.4-12.7 0-1.5-1.1-4.9-2.4-7.5-2.4-4.7-8.6-25.3-8.6-28.5 0-1.9-2.9-3.7-5.9-3.7-1.5 0-2-.6-2-2.3.2-2.8-9.2-20-15.8-29.2-6.8-9.3-23.1-38-24.4-43-2-7.1-3-9.2-5.9-12l-2.8-2.7-.7 25.4c-.4 13.9-.5 32.9-.3 42.3.5 16.8.5 17.2 4.8 30l4.2 13 .9 42.5c1.2 58.9.5 72.6-4.9 90.5l-2.7 9 .1 39.5c.2 56.8 1.2 89.9 3 95.9 1.2 4.3 2 5.2 5.9 7.1 13.5 6.5 12.7 11.3-2.6 14.7-9.3 2-48 2.3-50.3.4-1.2-1-1.5-11.2-1.9-65.9-.3-38.9-.9-69.3-1.6-76.2-1.2-11.1-13.8-90-14.5-90.8-.8-.7-5 19.2-20.3 94.8l-8.8 43.5.3 27c.1 14.8.6 31.9 1 37.9l.7 11 6.5 1.9c10.2 3 12.6 6.7 7 10.8-3.7 2.7-32.4 6.2-45.8 5.7-5.6-.3-10.4-.7-10.7-.9-.2-.3-1.2-3.9-2-8-1.4-6.2-1.7-17.7-2-70.4-.4-61.5-1-79.1-4.1-124-1.4-21.4-2.8-28.7-6-33.3-1.2-1.8-2.5-2.2-6.4-2.2-7 0-10.6-3.2-12.2-11l-1.2-5.9-11.4-3.6c-9.9-3.1-13-4.7-24-12.2-7-4.7-13.8-9.4-15.1-10.5-1.6-1.2-2.8-1.5-3.4-.9-1.3 1.3-1.8 35.8-.6 45.1.5 4.1 1.2 16.7 1.4 28 .5 19.1 2.2 45.8 4.5 69.5 1.4 14.2.2 40.4-2.5 55.7-2.2 12-2.5 12.9-5.8 15.7-2.9 2.6-3.8 4.6-6.2 13.3-2.6 9.8-2.7 11-2 24.3.4 7.6 1.1 14.9 1.5 16.1.6 1.6 2 2.3 5.4 2.8 2.5.4 5.5 1.5 6.8 2.5 1.9 1.6 2 2.1.9 3.4-2.8 3.4-22.4 8.6-27.6 7.3-3.5-.9-4-3.8-6.8-37.1l-2.4-28.9-2.8-2.1c-1.6-1.1-4.7-3.6-6.9-5.6l-3.9-3.6-1.2-15.9c-1.4-17.8-1.5-17.5-2.4 5l-.6 15.9-3.4 1.2c-1.9.6-3.7 2-4.1 3.1-2.7 7.4-3.8 55.8-1.5 63.1 1.1 3.4-2.6 4.8-12.5 4.7-9.2-.1-16.5-2-16.5-4.4 0-.8 2.4-2.8 5.3-4.3l5.2-2.8v-10.3c0-7.9-.6-12.7-2.6-20.2-1.4-5.5-2.8-13.4-3.1-17.7l-.6-7.7H116v-4.8c0-2.6 2-36.4 4.5-75.2 2.5-38.8 4.8-75 5.2-80.6.6-9.6.5-10.3-2-14.5-2.4-4-4.4-11-6.1-21.2-.6-3.4-.9-3.7-4.1-3.7H110v-23.8c0-36.4 1.7-46.7 9.4-57.9 1.8-2.7 5.3-6.3 7.7-8.1 7.3-5.6 25.8-22 27.4-24.5.8-1.3 1.8-5.1 2.1-8.5l.7-6.2-5-4.6c-3.3-2.9-6-6.6-7.8-10.5-3.1-6.9-2.8-9.4 1-8.5 2.9.7 3 .3 1-5.4-3.2-9.1-.9-21.5 5.1-27.5 6.6-6.7 14.3-9.1 23.9-7.5 8.4 1.4 16.9 5.6 21.8 10.9 5.6 6 7.1 10.5 6.4 19.1-.5 5.8-.3 6.8 1.4 7.8 1.3.9 1.9 2.4 1.9 5.2 0 3.4-.6 4.4-4.6 7.7-3.5 2.9-5.7 6.1-9.6 14.1-2.7 5.6-4.8 11-4.6 12 .2 1 3.3 3.2 7.1 5.1 5.9 3 8.3 3.6 16.6 4.1 14.8 1.1 17.7 3.3 25.1 19.4 5 10.8 23 56 23 57.8 0 .7-1.2 2.2-2.7 3.4l-2.8 2.2 6.3 5.9c3.5 3.2 9.1 7.3 12.5 9l6.2 3.3.3-8.3c.2-4.5-.4-14.3-1.2-21.7-2-16.8-3.3-37-4.2-61-.6-19.5.2-36 3.7-68.5 1.1-10.5 2.4-23.5 2.8-29 .8-11.4 2.1-14.4 9-21.8 5.3-5.7 11.8-10.3 25.1-17.7 5.4-3 12.4-8.1 16.3-11.7 5.6-5.2 7.3-6.3 10.2-6.3h3.5v-20.1l-4.5-4.8c-5.1-5.4-6-7.8-7.1-17.8-.4-3.7-1.3-8.6-2.1-10.8-1.6-4.6-.9-15.7 1.2-19.1 1.7-2.6 12.8-8.5 22.5-11.8 6.1-2.2 9-2.6 15.5-2.4l8.1.3 10.9 7.1z"/><path d="M794 311.9c-15.2 4.7-21.7 16.9-18.6 34.8 1.7 10 3.3 13.4 11.3 24.1 9.1 12.2 8.6 16.1-2.4 20.1-8.1 2.9-20.1 11.6-23.1 16.8-1.5 2.4-4.8 7.3-7.4 10.7-11.4 15.2-15.7 26.2-16.9 43.6-.5 6.9-1.3 15.4-1.7 18.8-.9 7.4-2 8.5-11.8 12.6-3.4 1.4-8.7 4.1-11.8 6.1-4.4 2.8-5.6 4.1-5.6 6.1 0 2.4.3 2.5 3.3 1.9 1.7-.4 3.4-.8 3.7-.8.3 0 2.3.5 4.5 1.2 3.7 1.2 4.6 1 11.8-1.8 21.5-8.6 26.7-12.9 27.9-23 .2-1.4.8-2.6 1.4-2.8 1.6-.5 10.5 7.7 11.9 11.2.7 1.6 2.5 10.7 4.1 20.2l2.7 17.1-2.5 9.5-2.6 9.5 1.4 40.9c.8 22.4 1.7 45 2 50.1l.6 9.3 3.6-.5c2.1-.3 6-.8 8.9-1.1l5.2-.7.7 4.7c.3 2.6.4 16.5.1 30.9-.3 16.8 0 33.7.9 47.6 2 31.1 2 30.4-.2 33.3-2.5 3.4-7.6 6.2-15.8 8.7-3.6 1.2-6.6 2.5-6.6 2.9 0 1 13.9 2.8 28.8 3.7l11.2.7-.9-2.9c-.6-1.6-1.7-5.2-2.6-7.9-2.4-7.2-1.1-24.7 3.6-49.4 1.6-8.5 1.9-13.9 1.7-29.5-.3-16.6 0-19.9 1.6-25.1 1.1-3.3 2.2-8.9 2.5-12.5l.6-6.5 14.5-.3c14-.2 14.5-.2 16.3 2 3.5 4.5 5.5 9.4 6.6 16.7.6 4 2 9.4 3.1 12 1 2.5 2.8 9.5 4 15.6 2.7 14.1 8.3 32.1 12.6 40.6 1.8 3.7 3.8 9.6 4.4 13.1.5 3.4 1.4 7.9 2 9.8.5 1.9.8 4.2.5 5.1-.3.9-3.8 4.5-7.7 8l-7.2 6.4 3 .6c3.9.9 31.4 1.1 31.4.3 0-.4-2.3-5.7-5.1-11.7l-5-11.1-1.5-18c-3-38.1-3.7-42-11.4-58.6-5.3-11.6-7.3-19.7-6.8-28l.3-5.5 4.1.3 4.1.3.6-18.8c.9-28.7.8-41.8-.8-61.6l-1.4-18.2 2.6-7c1.4-3.9 2.8-8.6 3-10.5 1-7.5-2.6-38-7.5-63.5-2.8-14.3-5.3-28.7-5.7-32-.9-8.6-3-14.5-7.7-21.7-6.2-9.8-8.3-11.4-18.7-15.4-29.2-11.1-29-10.9-23-24.7 4-9 6.2-21.1 5.5-30-.6-8.8-4.9-18.3-9.9-22.1-6.3-4.8-17.4-6.9-24.7-4.7zM655.7 342.6c-.4 7.1-.7 18.9-.7 26.2V382l5.4 10.8c4.5 9.1 5.9 13.2 9 27.4 2 9.2 3.6 17.5 3.6 18.3 0 .9 2 7.6 4.5 14.9 4.2 12.4 4.5 14.1 4.5 23.7 0 5.7.3 14.9.7 20.3.5 8.6.8 9.6 2 8 .7-1 1.1-2.5.8-3.3-.3-.9.5-5.2 1.6-9.6 4.2-16.4 4.3-17.1 3.2-22.7-1.8-9.4-8-31.9-13.1-47.4-3.6-10.8-5.2-17.6-5.6-23.5-1.8-22.8-2.8-28.4-8.1-46.2-7.6-25.6-7.1-25-7.8-10.1zM688.5 514.2c-.8 2.1.1 3.8 2.1 3.8 1.8 0 1.8-1.1 0-3.6-1.3-1.7-1.5-1.8-2.1-.2z"/></svg>
