<svg
   xmlns:dc="http://purl.org/dc/elements/1.1/"
   xmlns:cc="http://creativecommons.org/ns#"
   xmlns:rdf="http://www.w3.org/1999/02/22-rdf-syntax-ns#"
   xmlns:svg="http://www.w3.org/2000/svg"
   xmlns="http://www.w3.org/2000/svg"
   xmlns:sodipodi="http://sodipodi.sourceforge.net/DTD/sodipodi-0.dtd"
   version="1.1"
   id="layer1"
   x="0px"
   y="0px"
   width="296px"
   height="196px"
   viewBox="0 0 300 196"
   xml:space="preserve">
  <path 
    id="first2people"
    style="fill:#ffffff;fill-opacity:1"
    sodipodi:nodetypes="cssccscsccccsccscccccccssccccssccccccccscccccssccscsccssccccccccccccccsccccccccsccccccsccccsscccccsccscsssccsccssscccsccsccc"
    d="m 30.598589,76.021758 c 0,0 2.485468,-6.190512 3.642857,-7.431661 1.157391,-1.241149 2.649497,-1.493376 2.611107,-2.592705 l -0.08376,-2.398539 -1.399147,0.04886 c 0,0 3.160612,-6.914516 -4.264069,-10.357496 -7.424681,-3.44298 -10.703952,0.07361 -12.05773,1.421675 -1.350287,1.448006 -2.203101,5.680347 -1.119951,8.043986 1.08315,2.363638 0.280147,2.291619 0.280147,2.291619 0,0 -0.937841,-1.06792 -1.520026,-0.547286 -0.578694,0.620575 0.893742,2.670436 0.911192,3.170132 0.01742,0.499696 1.896621,2.735475 2.396317,2.718025 0.399756,-0.01398 1.348068,1.353777 1.382967,2.353169 0.0349,0.999391 -0.770324,3.729156 -0.770324,3.729156 0,0 -6.397052,5.926864 -8.453893,7.199422 -1.960389,1.169132 -4.3576571,4.154614 -5.22094,8.087138 -0.8632828,3.932524 -0.7011571,20.036677 -0.7011571,20.036677 l 2.2985996,-0.0802 c 0,0 1.1332786,6.66452 1.8607715,7.4396 0.724004,0.67515 1.169129,1.96039 1.169129,1.96039 l -0.671335,9.42918 -2.7897229,43.32374 6.7958579,-0.23731 c 0,0 0.06758,4.80056 0.616133,6.18226 0.548554,1.3817 1.270337,4.85863 1.308727,5.95796 0.03839,1.09933 -0.133997,5.74282 -0.133997,5.74282 -3.361967,1.39999 -5.121272,2.28936 -1.363251,2.95111 0.451788,0.34041 3.200293,0.46227 4.199684,0.42737 0.999392,-0.0348 3.121545,-0.57871 3.121545,-0.57871 l -0.652533,-3.72013 c -0.224601,-1.28046 -0.05838,-7.40248 -0.08979,-8.30193 -0.0349,-0.99939 0.978133,-9.23977 0.978133,-9.23977 l 2.577476,-0.69037 0.3804,-20.62584 c 0,0 0.72115,17.78567 1.162786,18.97098 0.445126,1.28525 4.22314,3.45471 4.22314,3.45471 0,0 1.443885,15.55909 1.475294,16.45854 0.193064,5.51639 0.814046,4.6202 6.132453,3.68824 3.391362,-0.88596 6.638677,-2.64478 1.282459,-3.38319 -0.799512,0.028 -1.411586,-0.31456 -1.618445,-0.50746 -0.206859,-0.1929 -0.92071,-9.17346 -0.387384,-11.09324 0.529835,-2.01972 1.256059,-4.14636 1.238609,-4.64605 -0.01742,-0.49971 2.418208,-2.38585 2.418208,-2.38585 l 1.308142,-6.99621 0.50653,-10.68514 c 0,0 -2.09736,-21.93292 -1.747732,-26.24775 0.349627,-4.31483 -1.293816,-11.26171 -0.671021,-13.48479 0.622794,-2.2231 -0.161809,-7.49893 -0.161809,-7.49893 l 0.964491,-1.03429 c 0,0 8.718179,6.09945 10.238205,6.64674 1.520025,0.54728 6.879616,2.16122 6.879616,2.16122 0,0 0.180208,2.29512 0.825212,3.57339 0.645004,1.27826 1.858232,1.63613 2.557806,1.61171 0.599634,-0.021 2.708825,0.20559 2.708825,0.20559 0,0 1.621235,3.44552 1.663113,4.64478 0.04188,1.19927 1.197038,15.62362 1.398833,22.86512 L 68.65756,163.204 c -0.384527,3.31543 -0.01366,26.20747 -0.01366,26.20747 l 1.022615,4.94404 c 4.818971,0.433 5.770469,0.67253 17.085367,-1.02171 0,0 6.135573,-2.50393 -3.560239,-4.13132 -0.3319,-5.13277 -1.015905,-20.88532 -0.43499,-24.30767 0.680855,-3.42585 7.831716,-38.63602 8.375511,-40.25597 0.547286,-1.52004 0.742404,-4.52868 0.742404,-4.52868 0,0 3.94617,24.17701 4.308806,25.96545 0.359147,1.6885 1.669461,19.1534 1.174526,22.17252 -0.394998,3.01562 0.03459,26.56148 0.03459,26.56148 12.49146,1.01086 27.10302,-0.3217 16.41021,-4.93564 -1.39916,0.0488 -1.95397,-5.05166 -1.95397,-5.05166 l 0.0438,-4.374 c 0,0 -1.02731,-32.28382 0.0428,-36.02344 1.07014,-3.73963 2.72024,-5.19811 2.03273,-24.8861 l -0.20823,-11.69986 c 1.37134,-5.5795 -2.49756,-10.475391 -3.07432,-16.402702 -0.0768,-2.198659 0.35122,-24.327076 0.35122,-24.327076 0,0 2.95057,1.397877 3.08319,5.195563 0,0 6.93927,12.465416 8.28035,13.619316 1.34458,1.253839 3.82815,6.470341 3.82815,6.470341 l 1.0866,1.591092 c 0,0 -1.41345,1.085854 0.58532,1.016055 1.99879,-0.06979 1.69364,2.078251 1.69364,2.078251 l 1.79312,6.28088 c 0,0 2.21067,5.89469 3.87802,1.97067 1.08664,2.46358 2.51848,2.76935 2.51848,2.76935 l 1.39199,-3.17841 c 0,0 0.78832,-2.97468 0.73597,-4.47376 -0.0524,-1.499102 0.31087,-2.739273 -0.68853,-2.704373 -0.99938,0.0349 -1.81064,-3.138722 -1.81064,-3.138722 l 1.83254,-1.965152 c 0,0 -1.65279,0.282374 -2.16998,-0.199871 -0.51714,-0.482245 -3.49162,-4.973049 -3.49162,-4.973049 0,0 -9.97554,-30.00278 -11.29347,-33.358829 -1.31792,-3.35605 -4.33958,-9.654432 -5.78758,-11.00472 -1.44801,-1.350288 -3.99186,-2.562247 -7.12137,-3.35351 -3.12603,-0.691325 -5.7419,-1.100282 -7.08299,-2.254181 -1.34458,-1.253839 -3.882716,-5.167644 -3.882716,-5.167644 l -1.898843,0.06631 -0.519684,-6.285693 c 0,0 1.974352,-0.769372 1.928982,-2.06858 -0.04886,-1.399148 1.040009,-1.737354 1.012081,-2.536867 -0.02796,-0.799512 0.643735,-1.623455 -0.08023,-2.2986 -0.724003,-0.675143 -1.442296,-4.052132 -0.767152,-4.776135 0.675147,-0.724004 0.591384,-3.122542 0.591384,-3.122542 0,0 -4.905264,-2.9305937 -5.732696,-3.7021868 -0.827432,-0.7715931 -4.663507,-1.7383049 -8.71215,-0.1960698 -4.048643,1.5422351 -7.59759,3.0670206 -7.548731,4.4661676 0.04886,1.399148 -0.756364,4.128911 0.17799,5.096893 0.413716,0.385797 0.577744,5.082933 1.133278,6.664509 0.776353,2.174231 2.988973,2.497207 3.034342,3.796415 l 0.219867,6.296163 -2.498477,0.08725 c 0,0 -1.267799,0.944821 -3.003883,2.806543 -1.736085,1.861723 -8.465633,3.997882 -12.420047,8.238473 -4.050865,4.344019 -2.268141,6.683228 -2.859526,9.805769 -0.591386,3.122542 -1.877266,17.876405 -1.817937,19.57537 -0.253379,13.99581 1.321245,28.009192 1.57682,27.962002 l 0.279196,7.99512 c 0,0 -3.650156,-1.37344 -5.408449,-3.01308 l -3.206301,-2.98992 2.053352,-1.3725 c 0,0 -7.714665,-20.34315 -9.783246,-22.272133 -2.06858,-1.928982 -3.967423,-1.862674 -6.565839,-1.771935 -2.494988,0.187188 -7.000495,-2.757366 -7.000495,-2.757366 z"/>
  <path 
    id="thirdPerson"
    style="fill:#ffffff;fill-opacity:1"
    sodipodi:nodetypes="csccccccsccsccccccccccccssccccsscccsssscsccssscccsccccccssccccsccccssccccccscccssscccc"
    d="m 143.15252,52.679463 c 0,0 -0.97337,12.241427 -2.86397,15.409338 -1.89059,3.167911 -4.29801,14.458807 -4.25264,15.758015 0.0488,1.399147 -2.38617,20.495754 -2.95089,21.516084 -0.66468,1.02383 0.18841,5.39672 1.2018,5.76158 1.00986,0.26491 2.58158,0.17813 2.54669,-0.82126 l 2.2804,-4.15177 c 0,0 0.52964,-7.821717 0.38656,-11.919219 -0.14314,-4.097502 5.0347,-16.28563 5.93637,-19.118823 0.90167,-2.833194 1.77543,-6.465901 1.74053,-7.465291 -0.0349,-0.999392 2.18787,-8.981828 2.18787,-8.981828 0,0 1.96642,4.734257 2.12696,9.331455 0.16055,4.597198 -1.32174,19.457981 -1.32174,19.457981 l 1.83381,0.936572 c 0,0 -3.83322,13.441963 -4.86274,15.479143 -0.9296,2.03368 -1.24147,21.75658 -1.15422,24.25505 -1.38526,9.23719 -1.00045,24.81688 -3.02043,30.82308 0,0 -3.72426,19.85095 -3.47203,21.34306 0.35216,1.48861 -1.91682,7.48043 -1.91682,7.48043 0,0 -4.67408,3.10301 -6.45554,3.66552 3.34309,5.39071 14.37464,3.25677 20.60156,3.90969 -0.22051,-2.85649 1.74617,-3.92233 2.3899,-5.54579 0.74717,-1.527 5.44577,-19.21027 5.44577,-19.21027 0,0 1.92763,-5.4841 1.8369,-8.08251 -0.0872,-2.49848 1.01303,-8.24037 0.94322,-10.23916 -0.0698,-1.99878 1.54065,-7.4583 1.49528,-8.75752 -0.0454,-1.29921 2.94868,-18.7143 3.35764,-21.33017 0.41244,-2.51593 0.81062,-14.03684 0.81062,-14.03684 0,0 0.94196,18.37832 1.03968,21.17662 2.1613,8.14578 -1.26379,19.12137 -1.22624,25.05806 0.0524,1.49908 -1.11518,11.04564 -1.01049,14.04382 0.10818,3.0981 0.54761,7.0852 0.29315,8.39488 -0.25444,1.30967 0.77541,7.87774 1.10315,8.66678 0.32773,0.78904 0.90238,6.40919 0.90238,6.40919 l 1.94131,4.06454 c 0,0 5.19677,0.22958 6.97822,-0.33293 1.78145,-0.56252 1.98743,-2.75631 3.07992,-2.99392 0,0 1.19779,-4.53737 0.86307,-5.52628 -0.33472,-0.98892 -1.15549,-10.16587 -0.72559,-12.1821 0.4299,-2.01624 3.25928,-9.81973 3.22438,-10.81912 -0.0349,-0.99939 1.14312,-10.24614 1.01748,-13.84394 -0.12561,-3.59781 1.34584,-27.36364 1.44102,-30.3688 0.19162,-3.10858 1.4883,-8.9574 1.42547,-10.75629 -0.0628,-1.79891 -0.36295,-10.393671 -0.40832,-11.692879 -0.0454,-1.299208 -2.75674,-7.308243 -2.81955,-9.107146 -0.0628,-1.798904 -1.74688,-7.043325 -1.80969,-8.842229 -0.0628,-1.798904 -3.87352,-7.769549 -3.90842,-8.76894 -0.035,-0.999391 0.39563,-17.324362 0.39563,-17.324362 0,0 3.70631,11.577705 4.29675,14.158671 0.58695,2.481027 0.88359,10.97585 1.43564,12.457486 0.55204,1.481636 4.21648,11.860072 4.63844,15.34747 0,0 0.97623,2.16725 1.0565,4.465847 0.0802,2.298602 -0.78429,3.329402 -0.95624,4.135902 -0.2719,0.80998 -0.95974,4.03594 -0.95974,4.03594 0,0 2.43947,6.81903 3.93856,6.76667 1.49908,-0.0524 2.42169,-2.28591 2.60413,-2.79258 0.0825,-0.50319 -0.69514,-14.061008 -0.73353,-15.160335 -0.0384,-1.099338 -1.95563,-18.866543 -2.10792,-20.36214 -0.15229,-1.495596 -2.25799,-1.622185 -2.54639,-7.015406 -0.29189,-5.493159 -1.38804,-13.960061 -1.38804,-13.960061 l 3.17711,-0.711314 c 0,0 -2.92076,-12.00538 -5.07183,-13.431177 -2.05114,-1.429287 -6.50779,-2.974694 -9.47232,-4.772328 -2.96455,-1.797634 -4.77868,-5.036295 -4.77868,-5.036295 l -1.69897,0.05933 c 0,0 -0.12915,-3.697745 0.632,-4.824995 0.76112,-1.127249 3.3037,-2.817014 3.2688,-3.816404 -0.0348,-0.999392 0.40769,-5.51759 -1.19261,-8.363474 -1.60029,-2.845884 -5.74094,-6.8037885 -7.2505,-7.0512565 -1.50956,-0.247468 -3.8348,1.9350116 -5.01662,2.4765865 -1.08188,0.538085 -4.48901,3.258649 -5.43257,4.892574 -0.94005,1.733864 -2.03462,4.773916 -3.19202,6.015064 -1.26081,1.1447 -2.95502,4.205691 -2.95502,4.205691 0,0 3.22121,-2.313828 3.97885,-3.541017 0.75414,-1.327128 1.78716,-3.264359 1.78716,-3.264359 0,0 -1.98228,6.273002 -3.33606,7.621069 -1.35378,1.348067 -4.08926,3.244689 -4.08926,3.244689 0,0 5.88119,-3.507387 6.43894,-4.727595 0.56124,-1.120269 1.70118,-2.861113 1.70118,-2.861113 0,0 -1.15612,4.142871 -1.9753,6.47288 -0.81918,2.330008 -1.64186,4.560077 -2.12061,5.177162 -0.47875,0.617084 -1.39788,2.950583 -2.68313,3.395708 -1.28524,0.445125 -2.51593,-0.412447 -4.06609,1.04254 -1.45023,1.451496 -6.43163,13.532704 -6.43163,13.532704 l 3.85352,1.466408 z" />
  <path 
    id="missingFourthPerson"
    style="fill:none;stroke:#ffffff;stroke-width:2;stroke-miterlimit:10;stroke-dasharray:none;stroke-opacity:1"
    sodipodi:nodetypes="ccccccsscscsccccccccscsccccssccccccccsccscsccccssccccccsc"
    stroke-miterlimit="10"
    d="m 219.67218,72.987914 c 0,0 2.87673,-0.306177 2.82438,-1.805263 -0.0524,-1.499086 -5.43785,-5.608163 -5.50066,-9.605326 -1.63457,-5.462307 0.10325,-12.989793 8.79803,-13.664397 2.79829,-0.09772 9.97424,0.731839 10.33022,10.925625 0,0 -0.40071,5.717468 -1.62663,7.861557 -1.22941,2.044151 -1.67327,3.660627 -0.85631,4.132402 0.81697,0.471776 6.15007,2.306467 9.29356,3.497487 3.14347,1.191019 6.82026,8.019273 6.8006,10.321361 -0.0196,2.302089 3.54625,18.51541 3.71251,20.41077 0.16624,1.89534 0.96258,10.37272 0.8011,11.47902 -0.26492,1.00987 -1.86617,3.86749 -1.8208,5.1667 0.0454,1.2992 1.31952,14.863 0.64089,15.48707 0.63122,7.07185 -0.52725,11.17876 0.0131,15.88978 l -3.09739,-0.20907 c -0.14761,7.3124 3.64796,8.98982 4.77278,15.47934 0.76367,4.67619 1.62,17.17662 1.62,17.17662 0.74328,1.83735 4.16258,7.67576 3.06443,8.87278 -13.0105,-0.36083 -16.09404,0.43891 -11.67307,-3.35314 -0.52064,-0.58219 3.50422,-2.08176 3.46584,-3.1811 -0.0349,-0.99938 -0.79139,-2.65433 -0.82979,-3.75367 -0.0384,-1.09933 -0.38753,-2.7698 -1.33231,-4.03759 -0.94482,-1.2678 -3.15572,-8.08142 -3.52533,-10.06973 -0.36961,-1.98831 -1.26145,-6.39161 -1.26145,-6.39161 -3.42323,-6.83268 0.13949,-5.20327 -3.622,-9.92087 l -7.75152,0.0274 c 0.27948,4.59677 -1.52449,4.75299 -1.55701,9.24432 0.0314,0.89945 0.62089,9.18394 -0.0914,11.71033 -0.71227,2.5264 -1.17231,6.5449 -1.41279,8.25433 -0.24049,1.70943 -0.30151,6.25265 -0.28057,6.85229 0,0 2.19998,5.51296 1.20057,5.54786 -7.67164,-0.34235 -24.13495,-0.93093 -10.98275,-4.77385 0.60312,0.079 3.07652,-1.37863 3.07652,-1.37863 l 0.95402,-1.3341 c 0,0 -0.915,-11.87531 -1.04762,-15.67299 0.20565,-7.41016 0.25482,-10.3982 0.0691,-17.8109 l -5.94598,0.58954 c 0,0 -0.68805,-21.77328 -0.85079,-23.56869 -0.16276,-1.79543 -0.23033,-6.59599 -0.29664,-8.49483 -0.0663,-1.89884 2.11014,-5.47698 1.43373,-7.6547 -0.6799,-2.27766 -1.22053,-9.16298 -2.05843,-10.23439 -0.83791,-1.07141 -1.86172,-1.73609 -1.86172,-1.73609 0,0 -0.19861,2.9087 -3.43727,4.72283 -3.23866,1.81414 -9.46851,3.93285 -9.46851,3.93285 l -2.23705,-1.02255 c 0,0 -2.17773,0.67641 -3.0702,0.9077 -0.89596,0.13134 -1.54318,1.65486 -2.32524,2.18248 -0.78207,0.52761 -2.87381,0.80078 -3.60828,-0.17418 -0.73448,-0.97496 0.38801,-3.2155 1.25606,-4.14636 0.77159,-0.82744 2.8389,-1.80017 3.83829,-1.83507 0.99939,-0.035 3.05623,-1.30746 4.13114,-2.04542 1.17483,-0.74146 5.53027,-2.09429 5.50933,-2.69392 -0.0244,-0.69957 -0.0698,-1.99878 0.19862,-2.9087 0.27189,-0.809981 0.43338,-1.916296 0.57044,-3.722179 -1.07625,-7.02351 6.01557,-15.427694 6.01557,-15.427694 1.16436,-1.041269 1.73714,-3.254253 3.10139,-4.302503 1.36424,-1.04825 6.26833,-4.156763 6.26833,-4.156763" />
  <text
    transform="matrix(0.5 0 0 0.5 260 177)"
    fill="#000000"
    font-family="\'Open Sans\'"
    font-size="10"
    id="registeredSymbol"
    style="stroke:none;stroke-opacity:0;fill:#ffffff;fill-opacity:1">
    ®
  </text>
</svg>
