<?xml version="1.0" encoding="utf-8"?>
<!-- Generator: Adobe Illustrator 19.1.0, SVG Export Plug-In . SVG Version: 6.00 Build 0)  -->
<svg version="1.1" id="Layer_1" xmlns="http://www.w3.org/2000/svg" xmlns:xlink="http://www.w3.org/1999/xlink" x="0px" y="0px"
	 viewBox="0 0 450 72" style="enable-background:new 0 0 450 72;" xml:space="preserve">
<style type="text/css">
	.st0{fill:#2196F3;}
</style>
<g>
	<path class="st0" d="M94,35.7L81.2,58.8c-1.2,2.3-3.6,3.8-6.4,3.8h-3.1l14.9-27l-14.9-27h3.1c2.8,0,5.2,1.5,6.4,3.8L94,35.7z"/>
	<path class="st0" d="M67.9,8.7H13.1C10.2,8.7,8,11,8,13.8v43.8c0,2.8,2.3,5.1,5.1,5.1h54.8l14.9-27L67.9,8.7z M35.8,47.8h-4.5
		L20.4,30h-0.1v17.8h-4V23.6h4.5l11,17.8h0.1V23.6h4V47.8z M44.3,47.8H40V23.6h4.2V47.8z M63.8,47.8V36.9h-11v10.9h-4.2V23.6h4.2
		v9.6h11v-9.6H68v24.2H63.8z"/>
</g>
<g>
	<g>
		<path class="st0" d="M105.2,28.7h2.9v9.7c0,2.2,0.1,4.8,3.9,4.8c3.8,0,3.9-2.6,3.9-4.8v-9.7h2.9v10.6c0,4.3-2.7,6.4-6.9,6.4
			c-4.1,0-6.9-2.1-6.9-6.4V28.7z"/>
		<path class="st0" d="M120.5,42.1h3.3v3.1h-3.3V42.1z"/>
		<path class="st0" d="M128.1,39.7c0,2.6,1.9,3.6,4.2,3.6c2.6,0,3.5-1.3,3.5-2.5c0-1.3-0.7-1.8-1.4-2c-1.2-0.4-2.7-0.7-5-1.4
			c-2.9-0.8-3.7-2.5-3.7-4.2c0-3.3,3.1-4.9,6.1-4.9c3.5,0,6.4,1.8,6.4,5.3h-2.9c-0.1-2.1-1.6-2.9-3.6-2.9c-1.4,0-3.1,0.5-3.1,2.2
			c0,1.2,0.8,1.8,2,2.1c0.3,0.1,4,1,4.8,1.3c2.2,0.7,3.3,2.5,3.3,4.2c0,3.7-3.3,5.2-6.7,5.2c-3.8,0-6.9-1.8-7-5.9H128.1z"/>
		<path class="st0" d="M140.5,42.1h3.3v3.1h-3.3V42.1z"/>
		<path class="st0" d="M150.8,28.7h3.1l7.6,12.2h0V28.7h2.8v16.6h-3.1l-7.6-12.2h-0.1v12.2h-2.8V28.7z"/>
		<path class="st0" d="M177.2,42.6c0,0.7,0.1,0.9,0.6,0.9c0.2,0,0.4,0,0.7,0v1.8c-0.4,0.1-1.2,0.3-1.7,0.3c-1.1,0-1.9-0.4-2.1-1.5
			c-1.1,1-2.8,1.5-4.2,1.5c-2.2,0-4.2-1.2-4.2-3.5c0-3,2.4-3.5,4.7-3.7c1.9-0.3,3.6-0.1,3.6-1.7c0-1.4-1.4-1.6-2.5-1.6
			c-1.5,0-2.6,0.6-2.7,1.9h-2.7c0.2-3.1,2.8-4,5.5-4c2.4,0,4.9,1,4.9,3.5V42.6z M174.5,39.2c-0.8,0.5-2.1,0.5-3.3,0.7
			c-1.1,0.2-2.2,0.6-2.2,2c0,1.2,1.5,1.5,2.5,1.5c1.2,0,3-0.6,3-2.3V39.2z"/>
		<path class="st0" d="M178.6,33.2h2v-3.6h2.7v3.6h2.4v2h-2.4v6.4c0,1.1,0.1,1.7,1.3,1.7c0.4,0,0.8,0,1.1-0.1v2
			c-0.6,0-1.2,0.1-1.7,0.1c-2.8,0-3.3-1.1-3.4-3.1v-7.1h-2V33.2z"/>
		<path class="st0" d="M187.7,28.7h2.7v2.5h-2.7V28.7z M187.7,33.2h2.7v12h-2.7V33.2z"/>
		<path class="st0" d="M192.2,39.2c0-3.7,2.2-6.3,6.1-6.3c3.9,0,6.1,2.7,6.1,6.3c0,3.7-2.2,6.3-6.1,6.3
			C194.4,45.6,192.2,42.9,192.2,39.2z M201.7,39.2c0-2.1-1.1-4.2-3.4-4.2c-2.4,0-3.4,2.2-3.4,4.2c0,2.1,1.1,4.3,3.4,4.3
			C200.7,43.5,201.7,41.3,201.7,39.2z"/>
		<path class="st0" d="M206.1,33.2h2.5V35l0,0c0.8-1.3,2.2-2.1,3.8-2.1c2.6,0,4.3,1.4,4.3,4.1v8.3H214v-7.6c0-1.9-0.8-2.7-2.4-2.7
			c-1.8,0-2.9,1.4-2.9,3.2v7.1h-2.7V33.2z"/>
		<path class="st0" d="M229.3,42.6c0,0.7,0.1,0.9,0.6,0.9c0.2,0,0.4,0,0.7,0v1.8c-0.4,0.1-1.2,0.3-1.7,0.3c-1.1,0-1.9-0.4-2.1-1.5
			c-1.1,1-2.8,1.5-4.2,1.5c-2.2,0-4.2-1.2-4.2-3.5c0-3,2.4-3.5,4.7-3.7c1.9-0.3,3.6-0.1,3.6-1.7c0-1.4-1.4-1.6-2.5-1.6
			c-1.5,0-2.6,0.6-2.7,1.9h-2.7c0.2-3.1,2.8-4,5.5-4c2.4,0,4.9,1,4.9,3.5V42.6z M226.6,39.2c-0.8,0.5-2.1,0.5-3.3,0.7
			c-1.1,0.2-2.2,0.6-2.2,2c0,1.2,1.5,1.5,2.5,1.5c1.2,0,3-0.6,3-2.3V39.2z"/>
		<path class="st0" d="M232.1,28.7h2.7v16.6h-2.7V28.7z"/>
		<path class="st0" d="M243.8,28.7h2.9v14.1h8.5v2.5h-11.4V28.7z"/>
		<path class="st0" d="M256.5,28.7h2.7v2.5h-2.7V28.7z M256.5,33.2h2.7v12h-2.7V33.2z"/>
		<path class="st0" d="M261.7,28.7h2.7v6.1h0c0.7-1.2,2.3-1.9,3.6-1.9c3.8,0,5.7,2.9,5.7,6.4c0,3.2-1.6,6.3-5.2,6.3
			c-1.6,0-3.4-0.4-4.2-2h0v1.6h-2.5V28.7z M267.7,35c-2.2,0-3.4,1.7-3.4,4.3c0,2.4,1.2,4.2,3.4,4.2c2.4,0,3.4-2.1,3.4-4.2
			C271,37.1,269.9,35,267.7,35z"/>
		<path class="st0" d="M275.4,33.2h2.5v2.3h0c0.3-1.3,1.9-2.7,3.5-2.7c0.6,0,0.8,0,1,0.1v2.6c-0.4,0-0.8-0.1-1.1-0.1
			c-1.8,0-3.3,1.5-3.3,4.1v5.7h-2.7V33.2z"/>
		<path class="st0" d="M293.5,42.6c0,0.7,0.1,0.9,0.6,0.9c0.2,0,0.4,0,0.7,0v1.8c-0.4,0.1-1.2,0.3-1.7,0.3c-1.1,0-1.9-0.4-2.1-1.5
			c-1.1,1-2.8,1.5-4.2,1.5c-2.2,0-4.2-1.2-4.2-3.5c0-3,2.4-3.5,4.7-3.7c1.9-0.3,3.6-0.1,3.6-1.7c0-1.4-1.4-1.6-2.5-1.6
			c-1.5,0-2.6,0.6-2.7,1.9h-2.7c0.2-3.1,2.8-4,5.5-4c2.4,0,4.9,1,4.9,3.5V42.6z M290.8,39.2c-0.8,0.5-2.1,0.5-3.3,0.7
			c-1.2,0.2-2.2,0.6-2.2,2c0,1.2,1.5,1.5,2.5,1.5c1.2,0,3-0.6,3-2.3V39.2z"/>
		<path class="st0" d="M296.3,33.2h2.5v2.3h0c0.3-1.3,1.9-2.7,3.5-2.7c0.6,0,0.8,0,1,0.1v2.6c-0.4,0-0.8-0.1-1.2-0.1
			c-1.8,0-3.3,1.5-3.3,4.1v5.7h-2.7V33.2z"/>
		<path class="st0" d="M303.7,33.2h2.9l3.2,9h0l3.1-9h2.8L311,45.9c-0.9,2.2-1.5,4.1-4.3,4.1c-0.6,0-1.2,0-1.9-0.1v-2.2
			c0.4,0.1,0.8,0.2,1.3,0.2c1.2,0,1.5-0.7,1.9-1.7l0.3-0.9L303.7,33.2z"/>
		<path class="st0" d="M321.7,39.2c0-3.7,2.2-6.3,6.1-6.3c3.9,0,6.1,2.7,6.1,6.3c0,3.7-2.2,6.3-6.1,6.3
			C323.9,45.6,321.7,42.9,321.7,39.2z M331.3,39.2c0-2.1-1.1-4.2-3.4-4.2c-2.4,0-3.4,2.2-3.4,4.2c0,2.1,1.1,4.3,3.4,4.3
			C330.2,43.5,331.3,41.3,331.3,39.2z"/>
		<path class="st0" d="M334.5,33.2h2v-1c0-3.1,1.6-3.6,3.4-3.6c0.8,0,1.5,0,1.9,0.2v2.1c-0.4-0.1-0.7-0.1-1.2-0.1
			c-0.7,0-1.3,0.3-1.3,1.3v1.2h2.3v2h-2.3v10h-2.7v-10h-2V33.2z"/>
		<path class="st0" d="M349.5,28.7h4.1l4.6,13h0l4.5-13h4.1v16.6h-2.8V32.5h0l-4.6,12.8H357l-4.6-12.8h0v12.8h-2.8V28.7z"/>
		<path class="st0" d="M371.3,39.9c0,1.9,1,3.6,3.3,3.6c1.5,0,2.5-0.7,3-2h2.5c-0.6,2.6-2.8,4.1-5.5,4.1c-3.8,0-5.9-2.6-5.9-6.3
			c0-3.4,2.3-6.3,5.9-6.3c3.8,0,6.2,3.4,5.7,7H371.3z M377.6,38.2c-0.1-1.7-1.2-3.2-3-3.2c-1.9,0-3.1,1.4-3.2,3.2H377.6z"/>
		<path class="st0" d="M393.5,45.3h-2.5v-1.6h0c-0.7,1.4-2.2,2-3.8,2c-3.8,0-5.7-2.8-5.7-6.4c0-4.3,2.6-6.3,5.3-6.3
			c1.5,0,3.2,0.6,4,1.9h0v-6.1h2.7V45.3z M387.5,43.5c2.4,0,3.4-2.2,3.4-4.3c0-2.6-1.3-4.2-3.4-4.2c-2.5,0-3.4,2.2-3.4,4.4
			C384.1,41.5,385.2,43.5,387.5,43.5z"/>
		<path class="st0" d="M396,28.7h2.7v2.5H396V28.7z M396,33.2h2.7v12H396V33.2z"/>
		<path class="st0" d="M409.2,37.3c-0.2-1.5-1.3-2.3-2.8-2.3c-1.4,0-3.3,0.7-3.3,4.4c0,2,0.9,4.1,3.2,4.1c1.5,0,2.6-1,2.9-2.7h2.7
			c-0.5,3.1-2.4,4.8-5.6,4.8c-3.8,0-5.9-2.7-5.9-6.2c0-3.6,2-6.5,6-6.5c2.8,0,5.2,1.4,5.5,4.3H409.2z"/>
		<path class="st0" d="M413.5,28.7h2.7v2.5h-2.7V28.7z M413.5,33.2h2.7v12h-2.7V33.2z"/>
		<path class="st0" d="M418.7,33.2h2.5V35l0,0c0.8-1.3,2.2-2.1,3.8-2.1c2.6,0,4.3,1.4,4.3,4.1v8.3h-2.7v-7.6c0-1.9-0.8-2.7-2.4-2.7
			c-1.8,0-2.9,1.4-2.9,3.2v7.1h-2.7V33.2z"/>
		<path class="st0" d="M433.6,39.9c0,1.9,1,3.6,3.3,3.6c1.5,0,2.5-0.7,3-2h2.5c-0.6,2.6-2.8,4.1-5.5,4.1c-3.8,0-5.9-2.6-5.9-6.3
			c0-3.4,2.3-6.3,5.9-6.3c3.8,0,6.2,3.4,5.7,7H433.6z M439.9,38.2c-0.1-1.7-1.2-3.2-3-3.2c-1.9,0-3.1,1.4-3.2,3.2H439.9z"/>
	</g>
</g>
</svg>
