<?xml version="1.0" encoding="UTF-8" standalone="no"?>
<svg
   xmlns:dc="http://purl.org/dc/elements/1.1/"
   xmlns:cc="http://creativecommons.org/ns#"
   xmlns:rdf="http://www.w3.org/1999/02/22-rdf-syntax-ns#"
   xmlns:svg="http://www.w3.org/2000/svg"
   xmlns="http://www.w3.org/2000/svg"
   xmlns:sodipodi="http://sodipodi.sourceforge.net/DTD/sodipodi-0.dtd"
   xmlns:inkscape="http://www.inkscape.org/namespaces/inkscape"
   version="1.1"
   id="Layer_1"
   x="0px"
   y="0px"
   viewBox="0 0 86 54.099998"
   xml:space="preserve"
   sodipodi:docname="nih-white.svg"
   width="86"
   height="54.099998"
   inkscape:version="0.92.1 unknown"><metadata
     id="metadata77"><rdf:RDF><cc:Work
         rdf:about=""><dc:format>image/svg+xml</dc:format><dc:type
           rdf:resource="http://purl.org/dc/dcmitype/StillImage" /></cc:Work></rdf:RDF></metadata><defs
     id="defs75" /><sodipodi:namedview
     pagecolor="#ffffff"
     bordercolor="#666666"
     borderopacity="1"
     objecttolerance="10"
     gridtolerance="10"
     guidetolerance="10"
     inkscape:pageopacity="0"
     inkscape:pageshadow="2"
     inkscape:window-width="1920"
     inkscape:window-height="1171"
     id="namedview73"
     showgrid="false"
     inkscape:zoom="2"
     inkscape:cx="217"
     inkscape:cy="26.7"
     inkscape:window-x="0"
     inkscape:window-y="0"
     inkscape:window-maximized="1"
     inkscape:current-layer="Layer_1" /><style
     type="text/css"
     id="style2">
	.st0{fill:#ffffff;}
</style><g
     id="g8"
     transform="translate(-8,-8.6)"><path
       class="st0"
       d="M 94,35.7 81.2,58.8 c -1.2,2.3 -3.6,3.8 -6.4,3.8 h -3.1 l 14.9,-27 -14.9,-27 h 3.1 c 2.8,0 5.2,1.5 6.4,3.8 z"
       id="path4"
       inkscape:connector-curvature="0"
       style="fill:#ffffff" /><path
       class="st0"
       d="M 67.9,8.7 H 13.1 C 10.2,8.7 8,11 8,13.8 v 43.8 c 0,2.8 2.3,5.1 5.1,5.1 h 54.8 l 14.9,-27 z M 35.8,47.8 H 31.3 L 20.4,30 h -0.1 v 17.8 h -4 V 23.6 h 4.5 l 11,17.8 h 0.1 V 23.6 h 4 v 24.2 z m 8.5,0 H 40 V 23.6 h 4.2 v 24.2 z m 19.5,0 V 36.9 h -11 V 47.8 H 48.6 V 23.6 h 4.2 v 9.6 h 11 V 23.6 H 68 v 24.2 z"
       id="path6"
       inkscape:connector-curvature="0"
       style="fill:#ffffff" /></g></svg>
